<svg width="14" height="14" viewBox="0 0 14 14" fill="none" xmlns="http://www.w3.org/2000/svg">
<mask id="mask0_2575_5241" style="mask-type:alpha" maskUnits="userSpaceOnUse" x="0" y="0" width="14" height="14">
<rect width="14" height="14" fill="#D9D9D9"/>
</mask>
<g mask="url(#mask0_2575_5241)">
<path d="M9.33342 4.66667V2.91667H4.66675V4.66667H3.50008V1.75H10.5001V4.66667H9.33342ZM10.5001 7.29167C10.6654 7.29167 10.8039 7.23576 10.9157 7.12396C11.0275 7.01215 11.0834 6.87361 11.0834 6.70833C11.0834 6.54306 11.0275 6.40451 10.9157 6.29271C10.8039 6.1809 10.6654 6.125 10.5001 6.125C10.3348 6.125 10.1963 6.1809 10.0845 6.29271C9.97265 6.40451 9.91675 6.54306 9.91675 6.70833C9.91675 6.87361 9.97265 7.01215 10.0845 7.12396C10.1963 7.23576 10.3348 7.29167 10.5001 7.29167ZM9.33342 11.0833V8.75H4.66675V11.0833H9.33342ZM10.5001 12.25H3.50008V9.91667H1.16675V6.41667C1.16675 5.92083 1.33689 5.50521 1.67716 5.16979C2.01744 4.83437 2.43064 4.66667 2.91675 4.66667H11.0834C11.5792 4.66667 11.9949 4.83437 12.3303 5.16979C12.6657 5.50521 12.8334 5.92083 12.8334 6.41667V9.91667H10.5001V12.25ZM11.6667 8.75V6.41667C11.6667 6.25139 11.6108 6.11285 11.499 6.00104C11.3872 5.88924 11.2487 5.83333 11.0834 5.83333H2.91675C2.75147 5.83333 2.61293 5.88924 2.50112 6.00104C2.38932 6.11285 2.33341 6.25139 2.33341 6.41667V8.75H3.50008V7.58333H10.5001V8.75H11.6667Z" fill="white"/>
</g>
</svg>
