<svg width="14" height="14" viewBox="0 0 14 14" fill="none" xmlns="http://www.w3.org/2000/svg">
<mask id="mask0_2593_8455" style="mask-type:alpha" maskUnits="userSpaceOnUse" x="0" y="0" width="14" height="14">
<rect width="14" height="14" fill="#D9D9D9"/>
</mask>
<g mask="url(#mask0_2593_8455)">
<path d="M1.75 6.41667V1.75H6.41667V6.41667H1.75ZM2.91667 5.25H5.25V2.91667H2.91667V5.25ZM1.75 12.25V7.58333H6.41667V12.25H1.75ZM2.91667 11.0833H5.25V8.75H2.91667V11.0833ZM7.58333 6.41667V1.75H12.25V6.41667H7.58333ZM8.75 5.25H11.0833V2.91667H8.75V5.25ZM11.0833 12.25V11.0833H12.25V12.25H11.0833ZM7.58333 8.75V7.58333H8.75V8.75H7.58333ZM8.75 9.91667V8.75H9.91667V9.91667H8.75ZM7.58333 11.0833V9.91667H8.75V11.0833H7.58333ZM8.75 12.25V11.0833H9.91667V12.25H8.75ZM9.91667 11.0833V9.91667H11.0833V11.0833H9.91667ZM9.91667 8.75V7.58333H11.0833V8.75H9.91667ZM11.0833 9.91667V8.75H12.25V9.91667H11.0833Z" fill="#47474A"/>
</g>
</svg>
